<svg xmlns="http://www.w3.org/2000/svg" version="1.1" xmlns:xlink="http://www.w3.org/1999/xlink" xmlns:svgjs="http://svgjs.dev/svgjs" width="1000" height="1000" viewBox="0 0 1000 1000"><rect width="1000" height="1000" fill="#ffffff"></rect><g transform="matrix(0.7,0,0,0.7,149.57575757575756,383.5717543510637)"><svg viewBox="0 0 396 132" data-background-color="#ffffff" preserveAspectRatio="xMidYMid meet" height="333" width="1000" xmlns="http://www.w3.org/2000/svg" xmlns:xlink="http://www.w3.org/1999/xlink"><g id="tight-bounds" transform="matrix(1,0,0,1,0.2400000000000091,-0.06894712286748472)"><svg viewBox="0 0 395.52 132.13789424573497" height="132.13789424573497" width="395.52"><g><svg viewBox="0 0 631.4323579819 210.9530292838475" height="132.13789424573497" width="395.52"><g transform="matrix(1,0,0,1,0,29.1548687360455)"><svg viewBox="0 0 395.52 152.6432918117565" height="152.6432918117565" width="395.52"><g id="textblocktransform"><svg viewBox="0 0 395.52 152.6432918117565" height="152.6432918117565" width="395.52" id="textblock"><g><svg viewBox="0 0 395.52 105.72582006664199" height="105.72582006664199" width="395.52"><g transform="matrix(1,0,0,1,0,0)"><svg width="395.52" viewBox="2.05 -35.5 135.04 36.1" height="105.72582006664199" data-palette-color="#ff908b"><path d="M25.63 0.6Q23.45 0.6 21.9-0.7 20.35-2 20.35-4.45 20.35-6.9 22.45-15.5L22.45-15.5Q20.95-15.85 18.85-15.85 16.75-15.85 14.4-15.25L14.4-15.25Q12.05-5.1 11.95-1.15L11.95-1.15Q9.75 0.15 3 0.15L3 0.15 2.05 0.15Q2.05-2.7 4.9-14.25 7.75-25.8 7.75-29.35L7.75-29.35Q7.75-30.2 7.23-31.23 6.7-32.25 6.15-32.85L6.15-32.85 5.6-33.45 5.7-34.45Q9.05-35.5 16.9-35.5L16.9-35.5Q17.7-34.4 17.7-32.1 17.7-29.8 15.45-19.85L15.45-19.85 23.45-19.85Q25.3-27.7 25.3-32.3L25.3-32.3Q25.3-33.2 25.25-33.75L25.25-33.75Q30.15-35.5 34.7-35.5L34.7-35.5Q35.05-35.15 35.05-32.98 35.05-30.8 32.58-19.95 30.1-9.1 30.1-6L30.1-6Q30.1-4.95 30.75-4.95L30.75-4.95Q32-4.95 33.45-5.6L33.45-5.6 34.55-2.8Q32.75-1.25 30.28-0.33 27.8 0.6 25.63 0.6ZM66.4-31.08Q67.85-29.05 68.55-26.8 69.25-24.55 69.25-21.45 69.25-18.35 68.17-14.55 67.1-10.75 64.97-7.28 62.85-3.8 59.1-1.6 55.35 0.6 50.55 0.6L50.55 0.6Q44.7 0.6 41.35-3.35 38-7.3 38-13.3 38-19.3 40.27-24.28 42.55-29.25 46.77-32.38 51-35.5 56.2-35.5L56.2-35.5Q59.7-35.5 62.32-34.3 64.95-33.1 66.4-31.08ZM49.65-3.9L49.65-3.9Q50.55-3.2 52.27-3.2 54-3.2 55.52-5.23 57.05-7.25 57.9-10.45L57.9-10.45Q59.5-16.75 59.5-23.5L59.5-23.5Q59.5-31.7 55.5-31.7L55.5-31.7Q53.6-31.7 52.07-29.93 50.55-28.15 49.65-25.3L49.65-25.3Q47.8-19.5 47.8-12.85L47.8-12.85Q47.8-5.4 49.65-3.9ZM81.14 0.6Q78.3 0.6 76.62-1.43 74.94-3.45 74.94-6.55 74.94-9.65 75.34-14.55 75.75-19.45 75.75-23.6 75.75-27.75 74.94-29.7L74.94-29.7Q74.59-30.45 72.84-32.55L72.84-32.55 72.19-33.3 72.39-34.3Q76.8-35.45 84.39-35.45L84.39-35.45Q85.64-34 85.64-29.75 85.64-25.5 85.05-19.58 84.44-13.65 84.44-10.95 84.44-8.25 84.84-7.4 85.25-6.55 86.14-6.55 87.05-6.55 88.5-7.53 89.94-8.5 90.8-9.6L90.8-9.6Q90.8-9.9 91.52-16.07 92.25-22.25 92.25-26.3 92.25-30.35 91.3-33.45L91.3-33.45Q95.64-35.45 101.75-35.5L101.75-35.5Q102.59-33.7 102.59-30 102.59-26.3 101.32-18.55 100.05-10.8 100.05-9.4L100.05-9.4Q100.05-6.6 101.47-6.6 102.9-6.6 105.12-9.1 107.34-11.6 109.17-15.53 111-19.45 111.19-22.9L111.19-22.9 105.55-26.7Q106-31.2 108.75-34.3L108.75-34.3Q109.34-34.95 110.15-35.45L110.15-35.45Q113.75-35.45 115.59-33.55 117.44-31.65 117.44-29.35L117.44-29.35Q117.44-25.25 115.59-20.03 113.75-14.8 110.87-10.25 108-5.7 104.07-2.55 100.14 0.6 96.39 0.6L96.39 0.6Q94.39 0.6 92.84-0.7 91.3-2 90.75-4.65L90.75-4.65Q85.75 0.6 81.14 0.6L81.14 0.6ZM129.79-14.15L129.79-14.15Q129.79-13.65 130.84-13.3L130.84-13.3Q130.99-13.25 131.37-13.1 131.74-12.95 132.02-12.88 132.29-12.8 132.44-12.75L132.44-12.75Q132.09-11.2 131.29-10.1L131.29-10.1Q126.94-10.1 124.32-11.63 121.69-13.15 121.69-16.05L121.69-16.05Q121.69-17.9 123.59-20.45L123.59-20.45Q124.29-21.35 125.59-22.95L125.59-22.95Q130.64-29.15 130.64-30.9L130.64-30.9Q130.64-31.8 129.04-31.8L129.04-31.8Q126.99-28.2 125.14-26.45L125.14-26.45Q123.39-26.7 121.22-28.48 119.04-30.25 119.04-31.28 119.04-32.3 121.34-33.9 123.64-35.5 126.79-35.5L126.79-35.5Q131.54-35.5 134.32-33.08 137.09-30.65 137.09-26.9L137.09-26.9Q137.09-25.4 136.27-23.63 135.44-21.85 134.77-20.9 134.09-19.95 132.74-18.35L132.74-18.35Q129.79-15.1 129.79-14.15ZM124.79 0.6Q122.59 0.6 121.37-0.5 120.14-1.6 120.14-3.4 120.14-5.2 121.77-6.5 123.39-7.8 125.62-7.8 127.84-7.8 128.89-6.7 129.94-5.6 129.94-3.9 129.94-2.2 128.47-0.8 126.99 0.6 124.79 0.6Z" opacity="1" transform="matrix(1,0,0,1,0,0)" fill="#000000" class="wordmark-text-0" data-fill-palette-color="primary" id="text-0"></path></svg></g></svg></g><g transform="matrix(1,0,0,1,0,130.68514876469456)"><svg viewBox="0 0 395.52 21.958143047061952" height="21.958143047061952" width="395.52"><g transform="matrix(1,0,0,1,0,0)"><svg width="395.52" viewBox="3.75 -38.6 940.16 52.2" height="21.958143047061952" data-palette-color="#ff908b"><path d="M32.3-34.8L32.3 0 26.6 0 9.45-25.95 9.45 0 3.75 0 3.75-34.8 9.45-34.8 26.6-8.9 26.6-34.8 32.3-34.8ZM37.9-13.9Q37.9-18.05 39.62-21.25 41.35-24.45 44.32-26.23 47.3-28 50.9-28L50.9-28Q54.15-28 56.57-26.73 59-25.45 60.45-23.55L60.45-23.55 60.45-27.55 66.2-27.55 66.2 0 60.45 0 60.45-4.1Q59-2.15 56.5-0.85 54 0.45 50.8 0.45L50.8 0.45Q47.25 0.45 44.3-1.38 41.35-3.2 39.62-6.48 37.9-9.75 37.9-13.9L37.9-13.9ZM60.45-13.8Q60.45-16.65 59.27-18.75 58.1-20.85 56.2-21.95 54.3-23.05 52.1-23.05L52.1-23.05Q49.9-23.05 48-21.98 46.1-20.9 44.92-18.82 43.75-16.75 43.75-13.9L43.75-13.9Q43.75-11.05 44.92-8.9 46.1-6.75 48.02-5.63 49.95-4.5 52.1-4.5L52.1-4.5Q54.3-4.5 56.2-5.6 58.1-6.7 59.27-8.83 60.45-10.95 60.45-13.8L60.45-13.8ZM76.55-27.55L84.35-5.1 92.15-27.55 98.2-27.55 87.7 0 80.9 0 70.45-27.55 76.55-27.55ZM105.39-31.2Q103.84-31.2 102.79-32.25 101.74-33.3 101.74-34.85L101.74-34.85Q101.74-36.4 102.79-37.45 103.84-38.5 105.39-38.5L105.39-38.5Q106.89-38.5 107.94-37.45 108.99-36.4 108.99-34.85L108.99-34.85Q108.99-33.3 107.94-32.25 106.89-31.2 105.39-31.2L105.39-31.2ZM102.49-27.55L108.19-27.55 108.19 0 102.49 0 102.49-27.55ZM126.79-28Q129.99-28 132.47-26.73 134.94-25.45 136.34-23.55L136.34-23.55 136.34-27.55 142.09-27.55 142.09 0.45Q142.09 4.25 140.49 7.23 138.89 10.2 135.87 11.9 132.84 13.6 128.64 13.6L128.64 13.6Q123.04 13.6 119.34 10.98 115.64 8.35 115.14 3.85L115.14 3.85 120.79 3.85Q121.44 6 123.57 7.33 125.69 8.65 128.64 8.65L128.64 8.65Q132.09 8.65 134.22 6.55 136.34 4.45 136.34 0.45L136.34 0.45 136.34-4.15Q134.89-2.2 132.42-0.88 129.94 0.45 126.79 0.45L126.79 0.45Q123.19 0.45 120.22-1.38 117.24-3.2 115.52-6.48 113.79-9.75 113.79-13.9L113.79-13.9Q113.79-18.05 115.52-21.25 117.24-24.45 120.22-26.23 123.19-28 126.79-28L126.79-28ZM136.34-13.8Q136.34-16.65 135.17-18.75 133.99-20.85 132.09-21.95 130.19-23.05 127.99-23.05L127.99-23.05Q125.79-23.05 123.89-21.98 121.99-20.9 120.82-18.82 119.64-16.75 119.64-13.9L119.64-13.9Q119.64-11.05 120.82-8.9 121.99-6.75 123.92-5.63 125.84-4.5 127.99-4.5L127.99-4.5Q130.19-4.5 132.09-5.6 133.99-6.7 135.17-8.83 136.34-10.95 136.34-13.8L136.34-13.8ZM168.84-27.55L174.54-27.55 174.54 0 168.84 0 168.84-3.25Q167.49-1.55 165.31-0.58 163.14 0.4 160.69 0.4L160.69 0.4Q157.44 0.4 154.86-0.95 152.29-2.3 150.81-4.95 149.34-7.6 149.34-11.35L149.34-11.35 149.34-27.55 154.99-27.55 154.99-12.2Q154.99-8.5 156.84-6.53 158.69-4.55 161.89-4.55L161.89-4.55Q165.09-4.55 166.96-6.53 168.84-8.5 168.84-12.2L168.84-12.2 168.84-27.55ZM207.29-14.45Q207.29-12.9 207.09-11.65L207.09-11.65 186.04-11.65Q186.29-8.35 188.49-6.35 190.69-4.35 193.89-4.35L193.89-4.35Q198.49-4.35 200.39-8.2L200.39-8.2 206.54-8.2Q205.29-4.4 202.01-1.98 198.74 0.45 193.89 0.45L193.89 0.45Q189.94 0.45 186.81-1.33 183.69-3.1 181.91-6.33 180.14-9.55 180.14-13.8L180.14-13.8Q180.14-18.05 181.86-21.28 183.59-24.5 186.71-26.25 189.84-28 193.89-28L193.89-28Q197.79-28 200.84-26.3 203.89-24.6 205.59-21.53 207.29-18.45 207.29-14.45L207.29-14.45ZM186.09-16.25L201.34-16.25Q201.29-19.4 199.09-21.3 196.89-23.2 193.64-23.2L193.64-23.2Q190.69-23.2 188.59-21.33 186.49-19.45 186.09-16.25L186.09-16.25ZM230.43-22.9L217.93-4.65 230.43-4.65 230.43 0 211.33 0 211.33-4.65 223.88-22.9 211.33-22.9 211.33-27.55 230.43-27.55 230.43-22.9ZM249.43-37L255.13-37 255.13 0 249.43 0 249.43-37ZM287.88-14.45Q287.88-12.9 287.68-11.65L287.68-11.65 266.63-11.65Q266.88-8.35 269.08-6.35 271.28-4.35 274.48-4.35L274.48-4.35Q279.08-4.35 280.98-8.2L280.98-8.2 287.13-8.2Q285.88-4.4 282.6-1.98 279.33 0.45 274.48 0.45L274.48 0.45Q270.53 0.45 267.4-1.33 264.28-3.1 262.5-6.33 260.73-9.55 260.73-13.8L260.73-13.8Q260.73-18.05 262.45-21.28 264.18-24.5 267.3-26.25 270.43-28 274.48-28L274.48-28Q278.38-28 281.43-26.3 284.48-24.6 286.18-21.53 287.88-18.45 287.88-14.45L287.88-14.45ZM266.68-16.25L281.93-16.25Q281.88-19.4 279.68-21.3 277.48-23.2 274.23-23.2L274.23-23.2Q271.28-23.2 269.18-21.33 267.08-19.45 266.68-16.25L266.68-16.25ZM303.47 0.45Q300.22 0.45 297.65-0.73 295.07-1.9 293.57-3.93 292.07-5.95 291.97-8.45L291.97-8.45 297.87-8.45Q298.02-6.7 299.55-5.53 301.07-4.35 303.37-4.35L303.37-4.35Q305.77-4.35 307.1-5.28 308.42-6.2 308.42-7.65L308.42-7.65Q308.42-9.2 306.95-9.95 305.47-10.7 302.27-11.6L302.27-11.6Q299.17-12.45 297.22-13.25 295.27-14.05 293.85-15.7 292.42-17.35 292.42-20.05L292.42-20.05Q292.42-22.25 293.72-24.08 295.02-25.9 297.45-26.95 299.87-28 303.02-28L303.02-28Q307.72-28 310.6-25.63 313.47-23.25 313.67-19.15L313.67-19.15 307.97-19.15Q307.82-21 306.47-22.1 305.12-23.2 302.82-23.2L302.82-23.2Q300.57-23.2 299.37-22.35 298.17-21.5 298.17-20.1L298.17-20.1Q298.17-19 298.97-18.25 299.77-17.5 300.92-17.07 302.07-16.65 304.32-16L304.32-16Q307.32-15.2 309.25-14.38 311.17-13.55 312.57-11.95 313.97-10.35 314.02-7.7L314.02-7.7Q314.02-5.35 312.72-3.5 311.42-1.65 309.05-0.6 306.67 0.45 303.47 0.45L303.47 0.45ZM331.27-13.9Q331.27-18.05 332.99-21.25 334.72-24.45 337.69-26.23 340.67-28 344.32-28L344.32-28Q347.02-28 349.64-26.83 352.27-25.65 353.82-23.7L353.82-23.7 353.82-37 359.57-37 359.57 0 353.82 0 353.82-4.15Q352.42-2.15 349.94-0.85 347.47 0.45 344.27 0.45L344.27 0.45Q340.67 0.45 337.69-1.38 334.72-3.2 332.99-6.48 331.27-9.75 331.27-13.9L331.27-13.9ZM353.82-13.8Q353.82-16.65 352.64-18.75 351.47-20.85 349.57-21.95 347.67-23.05 345.47-23.05L345.47-23.05Q343.27-23.05 341.37-21.98 339.47-20.9 338.29-18.82 337.12-16.75 337.12-13.9L337.12-13.9Q337.12-11.05 338.29-8.9 339.47-6.75 341.39-5.63 343.32-4.5 345.47-4.5L345.47-4.5Q347.67-4.5 349.57-5.6 351.47-6.7 352.64-8.83 353.82-10.95 353.82-13.8L353.82-13.8ZM392.32-14.45Q392.32-12.9 392.12-11.65L392.12-11.65 371.07-11.65Q371.32-8.35 373.52-6.35 375.72-4.35 378.92-4.35L378.92-4.35Q383.52-4.35 385.42-8.2L385.42-8.2 391.57-8.2Q390.32-4.4 387.04-1.98 383.77 0.45 378.92 0.45L378.92 0.45Q374.97 0.45 371.84-1.33 368.72-3.1 366.94-6.33 365.17-9.55 365.17-13.8L365.17-13.8Q365.17-18.05 366.89-21.28 368.62-24.5 371.74-26.25 374.87-28 378.92-28L378.92-28Q382.82-28 385.87-26.3 388.92-24.6 390.62-21.53 392.32-18.45 392.32-14.45L392.32-14.45ZM371.12-16.25L386.37-16.25Q386.32-19.4 384.12-21.3 381.92-23.2 378.67-23.2L378.67-23.2Q375.72-23.2 373.62-21.33 371.52-19.45 371.12-16.25L371.12-16.25ZM409.46-27.55L409.46-22.9 404.36-22.9 404.36 0 398.61 0 398.61-22.9 395.36-22.9 395.36-27.55 398.61-27.55 398.61-29.5Q398.61-34.25 401.14-36.43 403.66-38.6 409.06-38.6L409.06-38.6 409.06-33.85Q406.46-33.85 405.41-32.88 404.36-31.9 404.36-29.5L404.36-29.5 404.36-27.55 409.46-27.55ZM417.41-31.2Q415.86-31.2 414.81-32.25 413.76-33.3 413.76-34.85L413.76-34.85Q413.76-36.4 414.81-37.45 415.86-38.5 417.41-38.5L417.41-38.5Q418.91-38.5 419.96-37.45 421.01-36.4 421.01-34.85L421.01-34.85Q421.01-33.3 419.96-32.25 418.91-31.2 417.41-31.2L417.41-31.2ZM414.51-27.55L420.21-27.55 420.21 0 414.51 0 414.51-27.55ZM437.71 0.45Q434.46 0.45 431.88-0.73 429.31-1.9 427.81-3.93 426.31-5.95 426.21-8.45L426.21-8.45 432.11-8.45Q432.26-6.7 433.78-5.53 435.31-4.35 437.61-4.35L437.61-4.35Q440.01-4.35 441.33-5.28 442.66-6.2 442.66-7.65L442.66-7.65Q442.66-9.2 441.18-9.95 439.71-10.7 436.51-11.6L436.51-11.6Q433.41-12.45 431.46-13.25 429.51-14.05 428.08-15.7 426.66-17.35 426.66-20.05L426.66-20.05Q426.66-22.25 427.96-24.08 429.26-25.9 431.68-26.95 434.11-28 437.26-28L437.26-28Q441.96-28 444.83-25.63 447.71-23.25 447.91-19.15L447.91-19.15 442.21-19.15Q442.06-21 440.71-22.1 439.36-23.2 437.06-23.2L437.06-23.2Q434.81-23.2 433.61-22.35 432.41-21.5 432.41-20.1L432.41-20.1Q432.41-19 433.21-18.25 434.01-17.5 435.16-17.07 436.31-16.65 438.56-16L438.56-16Q441.56-15.2 443.48-14.38 445.41-13.55 446.81-11.95 448.21-10.35 448.26-7.7L448.26-7.7Q448.26-5.35 446.96-3.5 445.66-1.65 443.28-0.6 440.91 0.45 437.71 0.45L437.71 0.45ZM465.5-13.9Q465.5-18.05 467.23-21.25 468.95-24.45 471.93-26.23 474.9-28 478.55-28L478.55-28Q481.25-28 483.88-26.83 486.5-25.65 488.05-23.7L488.05-23.7 488.05-37 493.8-37 493.8 0 488.05 0 488.05-4.15Q486.65-2.15 484.18-0.85 481.7 0.45 478.5 0.45L478.5 0.45Q474.9 0.45 471.93-1.38 468.95-3.2 467.23-6.48 465.5-9.75 465.5-13.9L465.5-13.9ZM488.05-13.8Q488.05-16.65 486.88-18.75 485.7-20.85 483.8-21.95 481.9-23.05 479.7-23.05L479.7-23.05Q477.5-23.05 475.6-21.98 473.7-20.9 472.53-18.82 471.35-16.75 471.35-13.9L471.35-13.9Q471.35-11.05 472.53-8.9 473.7-6.75 475.63-5.63 477.55-4.5 479.7-4.5L479.7-4.5Q481.9-4.5 483.8-5.6 485.7-6.7 486.88-8.83 488.05-10.95 488.05-13.8L488.05-13.8ZM526.55-14.45Q526.55-12.9 526.35-11.65L526.35-11.65 505.3-11.65Q505.55-8.35 507.75-6.35 509.95-4.35 513.15-4.35L513.15-4.35Q517.75-4.35 519.65-8.2L519.65-8.2 525.8-8.2Q524.55-4.4 521.28-1.98 518 0.45 513.15 0.45L513.15 0.45Q509.2 0.45 506.08-1.33 502.95-3.1 501.18-6.33 499.4-9.55 499.4-13.8L499.4-13.8Q499.4-18.05 501.13-21.28 502.85-24.5 505.98-26.25 509.1-28 513.15-28L513.15-28Q517.05-28 520.1-26.3 523.15-24.6 524.85-21.53 526.55-18.45 526.55-14.45L526.55-14.45ZM505.35-16.25L520.6-16.25Q520.55-19.4 518.35-21.3 516.15-23.2 512.9-23.2L512.9-23.2Q509.95-23.2 507.85-21.33 505.75-19.45 505.35-16.25L505.35-16.25ZM545.14-37L550.85-37 550.85 0 545.14 0 545.14-37ZM556.44-13.9Q556.44-18.05 558.17-21.25 559.89-24.45 562.87-26.23 565.84-28 569.44-28L569.44-28Q572.69-28 575.12-26.73 577.54-25.45 578.99-23.55L578.99-23.55 578.99-27.55 584.74-27.55 584.74 0 578.99 0 578.99-4.1Q577.54-2.15 575.04-0.85 572.54 0.45 569.34 0.45L569.34 0.45Q565.79 0.45 562.84-1.38 559.89-3.2 558.17-6.48 556.44-9.75 556.44-13.9L556.44-13.9ZM578.99-13.8Q578.99-16.65 577.82-18.75 576.64-20.85 574.74-21.95 572.84-23.05 570.64-23.05L570.64-23.05Q568.44-23.05 566.54-21.98 564.64-20.9 563.47-18.82 562.29-16.75 562.29-13.9L562.29-13.9Q562.29-11.05 563.47-8.9 564.64-6.75 566.57-5.63 568.49-4.5 570.64-4.5L570.64-4.5Q572.84-4.5 574.74-5.6 576.64-6.7 577.82-8.83 578.99-10.95 578.99-13.8L578.99-13.8ZM608.09-27.55L615.89-5.1 623.69-27.55 629.74-27.55 619.24 0 612.44 0 601.99-27.55 608.09-27.55ZM636.93-31.2Q635.38-31.2 634.33-32.25 633.28-33.3 633.28-34.85L633.28-34.85Q633.28-36.4 634.33-37.45 635.38-38.5 636.93-38.5L636.93-38.5Q638.43-38.5 639.48-37.45 640.53-36.4 640.53-34.85L640.53-34.85Q640.53-33.3 639.48-32.25 638.43-31.2 636.93-31.2L636.93-31.2ZM634.03-27.55L639.73-27.55 639.73 0 634.03 0 634.03-27.55ZM672.48-14.45Q672.48-12.9 672.28-11.65L672.28-11.65 651.23-11.65Q651.48-8.35 653.68-6.35 655.88-4.35 659.08-4.35L659.08-4.35Q663.68-4.35 665.58-8.2L665.58-8.2 671.73-8.2Q670.48-4.4 667.21-1.98 663.93 0.45 659.08 0.45L659.08 0.45Q655.13 0.45 652.01-1.33 648.88-3.1 647.11-6.33 645.33-9.55 645.33-13.8L645.33-13.8Q645.33-18.05 647.06-21.28 648.78-24.5 651.91-26.25 655.03-28 659.08-28L659.08-28Q662.98-28 666.03-26.3 669.08-24.6 670.78-21.53 672.48-18.45 672.48-14.45L672.48-14.45ZM651.28-16.25L666.53-16.25Q666.48-19.4 664.28-21.3 662.08-23.2 658.83-23.2L658.83-23.2Q655.88-23.2 653.78-21.33 651.68-19.45 651.28-16.25L651.28-16.25ZM689.18-13.9Q689.18-18.05 690.9-21.25 692.63-24.45 695.6-26.23 698.58-28 702.18-28L702.18-28Q705.43-28 707.85-26.73 710.28-25.45 711.73-23.55L711.73-23.55 711.73-27.55 717.48-27.55 717.48 0 711.73 0 711.73-4.1Q710.28-2.15 707.78-0.85 705.28 0.45 702.08 0.45L702.08 0.45Q698.53 0.45 695.58-1.38 692.63-3.2 690.9-6.48 689.18-9.75 689.18-13.9L689.18-13.9ZM711.73-13.8Q711.73-16.65 710.55-18.75 709.38-20.85 707.48-21.95 705.58-23.05 703.38-23.05L703.38-23.05Q701.18-23.05 699.28-21.98 697.38-20.9 696.2-18.82 695.03-16.75 695.03-13.9L695.03-13.9Q695.03-11.05 696.2-8.9 697.38-6.75 699.3-5.63 701.23-4.5 703.38-4.5L703.38-4.5Q705.58-4.5 707.48-5.6 709.38-6.7 710.55-8.83 711.73-10.95 711.73-13.8L711.73-13.8ZM727.82-27.55L735.62-5.1 743.42-27.55 749.47-27.55 738.97 0 732.17 0 721.72-27.55 727.82-27.55ZM779.02-14.45Q779.02-12.9 778.82-11.65L778.82-11.65 757.77-11.65Q758.02-8.35 760.22-6.35 762.42-4.35 765.62-4.35L765.62-4.35Q770.22-4.35 772.12-8.2L772.12-8.2 778.27-8.2Q777.02-4.4 773.75-1.98 770.47 0.45 765.62 0.45L765.62 0.45Q761.67 0.45 758.55-1.33 755.42-3.1 753.65-6.33 751.87-9.55 751.87-13.8L751.87-13.8Q751.87-18.05 753.6-21.28 755.32-24.5 758.45-26.25 761.57-28 765.62-28L765.62-28Q769.52-28 772.57-26.3 775.62-24.6 777.32-21.53 779.02-18.45 779.02-14.45L779.02-14.45ZM757.82-16.25L773.07-16.25Q773.02-19.4 770.82-21.3 768.62-23.2 765.37-23.2L765.37-23.2Q762.42-23.2 760.32-21.33 758.22-19.45 757.82-16.25L757.82-16.25ZM782.72-13.8Q782.72-18.05 784.44-21.28 786.17-24.5 789.22-26.25 792.27-28 796.22-28L796.22-28Q801.22-28 804.49-25.63 807.77-23.25 808.92-18.85L808.92-18.85 802.77-18.85Q802.02-20.9 800.37-22.05 798.72-23.2 796.22-23.2L796.22-23.2Q792.72-23.2 790.64-20.73 788.57-18.25 788.57-13.8L788.57-13.8Q788.57-9.35 790.64-6.85 792.72-4.35 796.22-4.35L796.22-4.35Q801.17-4.35 802.77-8.7L802.77-8.7 808.92-8.7Q807.72-4.5 804.42-2.02 801.12 0.45 796.22 0.45L796.22 0.45Q792.27 0.45 789.22-1.33 786.17-3.1 784.44-6.33 782.72-9.55 782.72-13.8L782.72-13.8ZM849.66-34.75L855.36-34.75 855.36 0 849.66 0 849.66-15.2 833.31-15.2 833.31 0 827.61 0 827.61-34.75 833.31-34.75 833.31-19.85 849.66-19.85 849.66-34.75ZM874.81 0.45Q870.91 0.45 867.76-1.33 864.61-3.1 862.81-6.33 861.01-9.55 861.01-13.8L861.01-13.8Q861.01-18 862.86-21.25 864.71-24.5 867.91-26.25 871.11-28 875.06-28L875.06-28Q879.01-28 882.21-26.25 885.41-24.5 887.26-21.25 889.11-18 889.11-13.8L889.11-13.8Q889.11-9.6 887.21-6.35 885.31-3.1 882.04-1.33 878.76 0.45 874.81 0.45L874.81 0.45ZM874.81-4.5Q877.01-4.5 878.94-5.55 880.86-6.6 882.06-8.7 883.26-10.8 883.26-13.8L883.26-13.8Q883.26-16.8 882.11-18.88 880.96-20.95 879.06-22 877.16-23.05 874.96-23.05L874.96-23.05Q872.76-23.05 870.89-22 869.01-20.95 867.91-18.88 866.81-16.8 866.81-13.8L866.81-13.8Q866.81-9.35 869.09-6.93 871.36-4.5 874.81-4.5L874.81-4.5ZM926.16-27.55L931.76-27.55 923.21 0 917.21 0 911.66-20.35 906.11 0 900.11 0 891.51-27.55 897.31-27.55 903.06-5.4 908.91-27.55 914.86-27.55 920.46-5.5 926.16-27.55ZM937.11-34.75L943.16-34.75 942.51-10.5 937.76-10.5 937.11-34.75ZM940.31 0.35Q938.76 0.35 937.71-0.7 936.66-1.75 936.66-3.3L936.66-3.3Q936.66-4.85 937.71-5.9 938.76-6.95 940.31-6.95L940.31-6.95Q941.81-6.95 942.86-5.9 943.91-4.85 943.91-3.3L943.91-3.3Q943.91-1.75 942.86-0.7 941.81 0.35 940.31 0.35L940.31 0.35Z" opacity="1" transform="matrix(1,0,0,1,0,0)" fill="#000000" class="slogan-text-1" data-fill-palette-color="secondary" id="text-1"></path></svg></g></svg></g></svg></g></svg></g><g transform="matrix(1,0,0,1,420.47932869805254,0)"><svg viewBox="0 0 210.9530292838475 210.9530292838475" height="210.9530292838475" width="210.9530292838475"><g data-palette-color="#ff908b"><rect width="57.66049467091832" height="210.9530292838475" fill="#000000" stroke="transparent" data-fill-palette-color="accent" x="0" fill-opacity="1"></rect><rect width="57.66049467091832" height="210.9530292838475" fill="#000000" stroke="transparent" data-fill-palette-color="accent" x="70.31767642794917" fill-opacity="0.75"></rect><rect width="57.66049467091832" height="210.9530292838475" fill="#000000" stroke="transparent" data-fill-palette-color="accent" x="140.63535285589833" fill-opacity="0.5"></rect></g></svg></g></svg></g><defs></defs></svg><rect width="395.52" height="132.13789424573497" fill="none" stroke="none" visibility="hidden"></rect></g></svg></g></svg>